<svg width="294" height="58" viewBox="0 0 294 58" fill="none" xmlns="http://www.w3.org/2000/svg">
<path d="M31.4198 8.496V13.92H22.4918V42H15.7718V13.92H6.84382V8.496H31.4198ZM58.4029 42L51.0109 28.944H47.8429V42H41.1229V8.496H53.6989C56.2909 8.496 58.4989 8.96 60.3229 9.888C62.1469 10.784 63.5069 12.016 64.4029 13.584C65.3309 15.12 65.7949 16.848 65.7949 18.768C65.7949 20.976 65.1549 22.976 63.8749 24.768C62.5949 26.528 60.6909 27.744 58.1629 28.416L66.1789 42H58.4029ZM47.8429 23.904H53.4589C55.2829 23.904 56.6429 23.472 57.5389 22.608C58.4349 21.712 58.8829 20.48 58.8829 18.912C58.8829 17.376 58.4349 16.192 57.5389 15.36C56.6429 14.496 55.2829 14.064 53.4589 14.064H47.8429V23.904ZM83.3929 8.496V42H76.6729V8.496H83.3929ZM131.36 8.496V42H124.64V20.208L115.664 42H110.576L101.552 20.208V42H94.8323V8.496H102.464L113.12 33.408L123.776 8.496H131.36Z" fill="black"/>
<path d="M142.417 30.8C142.417 28.6027 142.908 26.64 143.889 24.912C144.892 23.1627 146.246 21.808 147.953 20.848C149.681 19.8667 151.612 19.376 153.745 19.376C156.241 19.376 158.428 20.016 160.305 21.296C162.182 22.576 163.494 24.3467 164.241 26.608H159.089C158.577 25.5413 157.852 24.7413 156.913 24.208C155.996 23.6747 154.929 23.408 153.713 23.408C152.412 23.408 151.249 23.7173 150.225 24.336C149.222 24.9333 148.433 25.7867 147.857 26.896C147.302 28.0053 147.025 29.3067 147.025 30.8C147.025 32.272 147.302 33.5733 147.857 34.704C148.433 35.8133 149.222 36.6773 150.225 37.296C151.249 37.8933 152.412 38.192 153.713 38.192C154.929 38.192 155.996 37.9253 156.913 37.392C157.852 36.8373 158.577 36.0267 159.089 34.96H164.241C163.494 37.2427 162.182 39.024 160.305 40.304C158.449 41.5627 156.262 42.192 153.745 42.192C151.612 42.192 149.681 41.712 147.953 40.752C146.246 39.7707 144.892 38.416 143.889 36.688C142.908 34.96 142.417 32.9973 142.417 30.8ZM181.636 42.224C179.545 42.224 177.625 41.7333 175.876 40.752C174.126 39.7707 172.74 38.416 171.716 36.688C170.692 34.9387 170.18 32.9653 170.18 30.768C170.18 28.592 170.692 26.64 171.716 24.912C172.74 23.1627 174.126 21.7973 175.876 20.816C177.625 19.8347 179.545 19.344 181.636 19.344C183.748 19.344 185.668 19.8347 187.396 20.816C189.145 21.7973 190.521 23.1627 191.524 24.912C192.548 26.64 193.06 28.592 193.06 30.768C193.06 32.9653 192.548 34.9387 191.524 36.688C190.521 38.416 189.145 39.7707 187.396 40.752C185.646 41.7333 183.726 42.224 181.636 42.224ZM181.636 38.224C182.98 38.224 184.164 37.9253 185.188 37.328C186.212 36.7093 187.012 35.8347 187.588 34.704C188.164 33.5733 188.452 32.2613 188.452 30.768C188.452 29.2747 188.164 27.9733 187.588 26.864C187.012 25.7333 186.212 24.8693 185.188 24.272C184.164 23.6747 182.98 23.376 181.636 23.376C180.292 23.376 179.097 23.6747 178.052 24.272C177.028 24.8693 176.228 25.7333 175.652 26.864C175.076 27.9733 174.788 29.2747 174.788 30.768C174.788 32.2613 175.076 33.5733 175.652 34.704C176.228 35.8347 177.028 36.7093 178.052 37.328C179.097 37.9253 180.292 38.224 181.636 38.224ZM211.113 42L206.185 33.296H204.073V42H199.593V19.664H207.977C209.705 19.664 211.177 19.9733 212.393 20.592C213.609 21.1893 214.515 22.0107 215.113 23.056C215.731 24.08 216.041 25.232 216.041 26.512C216.041 27.984 215.614 29.3173 214.761 30.512C213.907 31.6853 212.638 32.496 210.953 32.944L216.297 42H211.113ZM204.073 29.936H207.817C209.033 29.936 209.939 29.648 210.537 29.072C211.134 28.4747 211.433 27.6533 211.433 26.608C211.433 25.584 211.134 24.7947 210.537 24.24C209.939 23.664 209.033 23.376 207.817 23.376H204.073V29.936ZM242.397 42H237.917L227.773 26.672V42H223.293V19.632H227.773L237.917 34.992V19.632H242.397V42ZM254.504 23.28V28.88H262.024V32.432H254.504V38.352H262.984V42H250.024V19.632H262.984V23.28H254.504ZM281.775 42L276.847 33.296H274.735V42H270.255V19.664H278.639C280.367 19.664 281.839 19.9733 283.055 20.592C284.271 21.1893 285.178 22.0107 285.775 23.056C286.394 24.08 286.703 25.232 286.703 26.512C286.703 27.984 286.276 29.3173 285.423 30.512C284.57 31.6853 283.3 32.496 281.615 32.944L286.959 42H281.775ZM274.735 29.936H278.479C279.695 29.936 280.602 29.648 281.199 29.072C281.796 28.4747 282.095 27.6533 282.095 26.608C282.095 25.584 281.796 24.7947 281.199 24.24C280.602 23.664 279.695 23.376 278.479 23.376H274.735V29.936Z" fill="black"/>
</svg>
