<svg width="50" height="50" viewBox="0 0 50 50" fill="none" xmlns="http://www.w3.org/2000/svg">
<path d="M41.667 37.4999H37.5003V19.2708L25.0003 27.0833L12.5003 19.2708V37.4999H8.33366V12.4999H10.8337L25.0003 21.3541L39.167 12.4999H41.667M41.667 8.33325H8.33366C6.02116 8.33325 4.16699 10.1874 4.16699 12.4999V37.4999C4.16699 38.605 4.60598 39.6648 5.38738 40.4462C6.16878 41.2276 7.22859 41.6666 8.33366 41.6666H41.667C42.7721 41.6666 43.8319 41.2276 44.6133 40.4462C45.3947 39.6648 45.8337 38.605 45.8337 37.4999V12.4999C45.8337 11.3948 45.3947 10.335 44.6133 9.55364C43.8319 8.77224 42.7721 8.33325 41.667 8.33325Z" fill="black"/>
</svg>
